<mxfile host="app.diagrams.net" agent="Mozilla/5.0 (Windows NT 10.0; Win64; x64; rv:133.0) Gecko/20100101 Firefox/133.0" version="25.0.3">
  <diagram name="Страница — 1" id="AoV-_q_vcxY0rbIw00NA">
    <mxGraphModel dx="1317" dy="820" grid="1" gridSize="10" guides="1" tooltips="1" connect="1" arrows="1" fold="1" page="1" pageScale="1" pageWidth="827" pageHeight="1169" math="0" shadow="0">
      <root>
        <mxCell id="0" />
        <mxCell id="1" parent="0" />
        <mxCell id="60kALjNOV5a4V5KtlCVZ-2" value="return log(1 + pow(2, 0.5));" style="ellipse;whiteSpace=wrap;html=1;" vertex="1" parent="1">
          <mxGeometry x="9" y="100" width="160" height="80" as="geometry" />
        </mxCell>
        <mxCell id="60kALjNOV5a4V5KtlCVZ-6" value="" style="edgeStyle=orthogonalEdgeStyle;rounded=0;orthogonalLoop=1;jettySize=auto;html=1;" edge="1" parent="1" target="60kALjNOV5a4V5KtlCVZ-5">
          <mxGeometry relative="1" as="geometry">
            <mxPoint x="329" y="90" as="sourcePoint" />
          </mxGeometry>
        </mxCell>
        <mxCell id="60kALjNOV5a4V5KtlCVZ-5" value="return 1/(1 + pow(2, 0.5)) * 0;" style="ellipse;whiteSpace=wrap;html=1;" vertex="1" parent="1">
          <mxGeometry x="244" y="100" width="170" height="80" as="geometry" />
        </mxCell>
        <mxCell id="60kALjNOV5a4V5KtlCVZ-12" value="" style="edgeStyle=orthogonalEdgeStyle;rounded=0;orthogonalLoop=1;jettySize=auto;html=1;" edge="1" parent="1" source="60kALjNOV5a4V5KtlCVZ-8" target="60kALjNOV5a4V5KtlCVZ-11">
          <mxGeometry relative="1" as="geometry" />
        </mxCell>
        <mxCell id="60kALjNOV5a4V5KtlCVZ-8" value="counter++;" style="whiteSpace=wrap;html=1;" vertex="1" parent="1">
          <mxGeometry x="590" y="120" width="120" height="60" as="geometry" />
        </mxCell>
        <mxCell id="60kALjNOV5a4V5KtlCVZ-14" value="" style="edgeStyle=orthogonalEdgeStyle;rounded=0;orthogonalLoop=1;jettySize=auto;html=1;" edge="1" parent="1" source="60kALjNOV5a4V5KtlCVZ-11" target="60kALjNOV5a4V5KtlCVZ-13">
          <mxGeometry relative="1" as="geometry" />
        </mxCell>
        <mxCell id="60kALjNOV5a4V5KtlCVZ-11" value="x1 = f(x0)" style="whiteSpace=wrap;html=1;" vertex="1" parent="1">
          <mxGeometry x="590" y="210" width="120" height="60" as="geometry" />
        </mxCell>
        <mxCell id="60kALjNOV5a4V5KtlCVZ-15" style="edgeStyle=orthogonalEdgeStyle;rounded=0;orthogonalLoop=1;jettySize=auto;html=1;entryX=0.5;entryY=0;entryDx=0;entryDy=0;" edge="1" parent="1" source="60kALjNOV5a4V5KtlCVZ-13" target="60kALjNOV5a4V5KtlCVZ-16">
          <mxGeometry relative="1" as="geometry">
            <mxPoint x="500" y="420" as="targetPoint" />
          </mxGeometry>
        </mxCell>
        <mxCell id="60kALjNOV5a4V5KtlCVZ-28" style="edgeStyle=orthogonalEdgeStyle;rounded=0;orthogonalLoop=1;jettySize=auto;html=1;exitX=1;exitY=0.5;exitDx=0;exitDy=0;" edge="1" parent="1" source="60kALjNOV5a4V5KtlCVZ-13">
          <mxGeometry relative="1" as="geometry">
            <mxPoint x="650" y="730" as="targetPoint" />
            <Array as="points">
              <mxPoint x="800" y="350" />
              <mxPoint x="800" y="730" />
            </Array>
          </mxGeometry>
        </mxCell>
        <mxCell id="60kALjNOV5a4V5KtlCVZ-13" value="(abs(x0 - x1) &amp;lt;= E )" style="rhombus;whiteSpace=wrap;html=1;" vertex="1" parent="1">
          <mxGeometry x="585" y="310" width="130" height="80" as="geometry" />
        </mxCell>
        <mxCell id="60kALjNOV5a4V5KtlCVZ-22" value="" style="edgeStyle=orthogonalEdgeStyle;rounded=0;orthogonalLoop=1;jettySize=auto;html=1;" edge="1" parent="1" source="60kALjNOV5a4V5KtlCVZ-16" target="60kALjNOV5a4V5KtlCVZ-21">
          <mxGeometry relative="1" as="geometry" />
        </mxCell>
        <mxCell id="60kALjNOV5a4V5KtlCVZ-16" value="cout &amp;lt;&amp;lt; &quot;Первое решение&quot; &amp;lt;&amp;lt; x0 &amp;lt;&amp;lt; endl;" style="shape=parallelogram;perimeter=parallelogramPerimeter;whiteSpace=wrap;html=1;fixedSize=1;" vertex="1" parent="1">
          <mxGeometry x="300" y="380" width="270" height="50" as="geometry" />
        </mxCell>
        <mxCell id="60kALjNOV5a4V5KtlCVZ-24" value="" style="edgeStyle=orthogonalEdgeStyle;rounded=0;orthogonalLoop=1;jettySize=auto;html=1;" edge="1" parent="1" source="60kALjNOV5a4V5KtlCVZ-21" target="60kALjNOV5a4V5KtlCVZ-23">
          <mxGeometry relative="1" as="geometry" />
        </mxCell>
        <mxCell id="60kALjNOV5a4V5KtlCVZ-21" value="cout &amp;lt;&amp;lt; &quot;Второе решение&quot; &amp;lt;&amp;lt; x1 &amp;lt;&amp;lt; endl;" style="shape=parallelogram;perimeter=parallelogramPerimeter;whiteSpace=wrap;html=1;fixedSize=1;" vertex="1" parent="1">
          <mxGeometry x="300" y="460" width="270" height="50" as="geometry" />
        </mxCell>
        <mxCell id="60kALjNOV5a4V5KtlCVZ-26" value="" style="edgeStyle=orthogonalEdgeStyle;rounded=0;orthogonalLoop=1;jettySize=auto;html=1;" edge="1" parent="1" source="60kALjNOV5a4V5KtlCVZ-23" target="60kALjNOV5a4V5KtlCVZ-25">
          <mxGeometry relative="1" as="geometry" />
        </mxCell>
        <mxCell id="60kALjNOV5a4V5KtlCVZ-23" value="cout &amp;lt;&amp;lt; &quot;Количество потребовавшихся итераций&quot; &amp;lt;&amp;lt; counter &amp;lt;&amp;lt; endl;" style="shape=parallelogram;perimeter=parallelogramPerimeter;whiteSpace=wrap;html=1;fixedSize=1;" vertex="1" parent="1">
          <mxGeometry x="300" y="540" width="270" height="50" as="geometry" />
        </mxCell>
        <mxCell id="60kALjNOV5a4V5KtlCVZ-27" style="edgeStyle=orthogonalEdgeStyle;rounded=0;orthogonalLoop=1;jettySize=auto;html=1;exitX=0.5;exitY=1;exitDx=0;exitDy=0;" edge="1" parent="1" source="60kALjNOV5a4V5KtlCVZ-25">
          <mxGeometry relative="1" as="geometry">
            <mxPoint x="650" y="730" as="targetPoint" />
            <Array as="points">
              <mxPoint x="435" y="730" />
              <mxPoint x="640" y="730" />
            </Array>
          </mxGeometry>
        </mxCell>
        <mxCell id="60kALjNOV5a4V5KtlCVZ-25" value="return 0;" style="ellipse;whiteSpace=wrap;html=1;" vertex="1" parent="1">
          <mxGeometry x="372.5" y="630" width="125" height="80" as="geometry" />
        </mxCell>
        <mxCell id="60kALjNOV5a4V5KtlCVZ-29" value="" style="endArrow=classic;html=1;rounded=0;entryX=0.5;entryY=0;entryDx=0;entryDy=0;" edge="1" parent="1" target="60kALjNOV5a4V5KtlCVZ-30">
          <mxGeometry width="50" height="50" relative="1" as="geometry">
            <mxPoint x="650" y="730" as="sourcePoint" />
            <mxPoint x="650" y="770" as="targetPoint" />
          </mxGeometry>
        </mxCell>
        <mxCell id="60kALjNOV5a4V5KtlCVZ-32" value="" style="edgeStyle=orthogonalEdgeStyle;rounded=0;orthogonalLoop=1;jettySize=auto;html=1;" edge="1" parent="1" source="60kALjNOV5a4V5KtlCVZ-30" target="60kALjNOV5a4V5KtlCVZ-31">
          <mxGeometry relative="1" as="geometry" />
        </mxCell>
        <mxCell id="60kALjNOV5a4V5KtlCVZ-30" value="x0 = x1" style="rounded=0;whiteSpace=wrap;html=1;" vertex="1" parent="1">
          <mxGeometry x="590" y="770" width="120" height="60" as="geometry" />
        </mxCell>
        <mxCell id="60kALjNOV5a4V5KtlCVZ-31" value="rec(x0, x1)" style="rounded=0;whiteSpace=wrap;html=1;" vertex="1" parent="1">
          <mxGeometry x="590" y="870" width="120" height="60" as="geometry" />
        </mxCell>
        <mxCell id="60kALjNOV5a4V5KtlCVZ-34" style="edgeStyle=orthogonalEdgeStyle;rounded=0;orthogonalLoop=1;jettySize=auto;html=1;entryX=0.5;entryY=0;entryDx=0;entryDy=0;" edge="1" parent="1" source="60kALjNOV5a4V5KtlCVZ-33" target="60kALjNOV5a4V5KtlCVZ-8">
          <mxGeometry relative="1" as="geometry" />
        </mxCell>
        <mxCell id="60kALjNOV5a4V5KtlCVZ-33" value="&#xa;int rec( double x0, double x1)&#xa;&#xa;" style="shape=process;whiteSpace=wrap;html=1;backgroundOutline=1;" vertex="1" parent="1">
          <mxGeometry x="540" y="10" width="220" height="60" as="geometry" />
        </mxCell>
        <mxCell id="60kALjNOV5a4V5KtlCVZ-36" value="" style="edgeStyle=orthogonalEdgeStyle;rounded=0;orthogonalLoop=1;jettySize=auto;html=1;" edge="1" parent="1" source="60kALjNOV5a4V5KtlCVZ-35" target="60kALjNOV5a4V5KtlCVZ-5">
          <mxGeometry relative="1" as="geometry" />
        </mxCell>
        <mxCell id="60kALjNOV5a4V5KtlCVZ-35" value="&#xa;double f_pr(double x)&#xa;&#xa;" style="shape=process;whiteSpace=wrap;html=1;backgroundOutline=1;" vertex="1" parent="1">
          <mxGeometry x="246" y="10" width="166" height="60" as="geometry" />
        </mxCell>
        <mxCell id="60kALjNOV5a4V5KtlCVZ-38" value="" style="edgeStyle=orthogonalEdgeStyle;rounded=0;orthogonalLoop=1;jettySize=auto;html=1;" edge="1" parent="1" source="60kALjNOV5a4V5KtlCVZ-37" target="60kALjNOV5a4V5KtlCVZ-2">
          <mxGeometry relative="1" as="geometry" />
        </mxCell>
        <mxCell id="60kALjNOV5a4V5KtlCVZ-37" value="&#xa;double f(double x)&#xa;&#xa;" style="shape=process;whiteSpace=wrap;html=1;backgroundOutline=1;" vertex="1" parent="1">
          <mxGeometry x="24" y="10" width="130" height="60" as="geometry" />
        </mxCell>
        <mxCell id="60kALjNOV5a4V5KtlCVZ-39" value="if" style="text;html=1;align=center;verticalAlign=middle;whiteSpace=wrap;rounded=0;" vertex="1" parent="1">
          <mxGeometry x="655" y="300" width="60" height="30" as="geometry" />
        </mxCell>
        <mxCell id="60kALjNOV5a4V5KtlCVZ-40" value="1" style="text;html=1;align=center;verticalAlign=middle;whiteSpace=wrap;rounded=0;" vertex="1" parent="1">
          <mxGeometry x="530" y="320" width="60" height="30" as="geometry" />
        </mxCell>
        <mxCell id="60kALjNOV5a4V5KtlCVZ-41" value="{" style="text;html=1;align=center;verticalAlign=middle;whiteSpace=wrap;rounded=0;" vertex="1" parent="1">
          <mxGeometry x="40" y="70" width="60" height="30" as="geometry" />
        </mxCell>
        <mxCell id="60kALjNOV5a4V5KtlCVZ-42" value="}" style="text;html=1;align=center;verticalAlign=middle;whiteSpace=wrap;rounded=0;" vertex="1" parent="1">
          <mxGeometry x="59" y="190" width="60" height="30" as="geometry" />
        </mxCell>
        <mxCell id="60kALjNOV5a4V5KtlCVZ-43" value="{" style="text;html=1;align=center;verticalAlign=middle;whiteSpace=wrap;rounded=0;" vertex="1" parent="1">
          <mxGeometry x="280" y="70" width="60" height="30" as="geometry" />
        </mxCell>
        <mxCell id="60kALjNOV5a4V5KtlCVZ-44" value="}" style="text;html=1;align=center;verticalAlign=middle;whiteSpace=wrap;rounded=0;" vertex="1" parent="1">
          <mxGeometry x="300" y="190" width="60" height="30" as="geometry" />
        </mxCell>
        <mxCell id="60kALjNOV5a4V5KtlCVZ-45" value="{" style="text;html=1;align=center;verticalAlign=middle;whiteSpace=wrap;rounded=0;" vertex="1" parent="1">
          <mxGeometry x="610" y="80" width="60" height="30" as="geometry" />
        </mxCell>
        <mxCell id="60kALjNOV5a4V5KtlCVZ-46" value="}" style="text;html=1;align=center;verticalAlign=middle;whiteSpace=wrap;rounded=0;" vertex="1" parent="1">
          <mxGeometry x="620" y="950" width="60" height="30" as="geometry" />
        </mxCell>
        <mxCell id="60kALjNOV5a4V5KtlCVZ-47" value="{" style="text;html=1;align=center;verticalAlign=middle;whiteSpace=wrap;rounded=0;" vertex="1" parent="1">
          <mxGeometry x="384" y="350" width="60" height="30" as="geometry" />
        </mxCell>
        <mxCell id="60kALjNOV5a4V5KtlCVZ-48" value="}" style="text;html=1;align=center;verticalAlign=middle;whiteSpace=wrap;rounded=0;" vertex="1" parent="1">
          <mxGeometry x="470" y="700" width="60" height="30" as="geometry" />
        </mxCell>
      </root>
    </mxGraphModel>
  </diagram>
</mxfile>
